<svg width="1600" height="400" viewBox="0 0 1600 400" fill="none" xmlns="http://www.w3.org/2000/svg">
<path d="M1600 0H0V400H1600V0Z" fill="#212121"/>
<g opacity="0.08">
<mask id="mask0_1740_6764" style="mask-type:luminance" maskUnits="userSpaceOnUse" x="0" y="0" width="800" height="400">
<path d="M800 0H0V399.99H800V0Z" fill="white"/>
</mask>
<g mask="url(#mask0_1740_6764)">
<path d="M88.89 50.005V-49.995L0 0.000114212L88.89 50.005Z" fill="#999999"/>
<path d="M88.89 150.005V50.0049L0 100L88.89 150.005Z" fill="#666666"/>
<path d="M88.89 50.005L0 6.10352e-05V100L88.89 50.005Z" fill="#4D4D4D"/>
<path d="M88.89 150.005L0 200L88.89 249.995V150.005Z" fill="#666666"/>
<path d="M0 100V200L88.89 150.005L0 100Z" fill="#808080"/>
<path d="M266.67 50.005V-49.995L177.78 0.000114212L266.67 50.005Z" fill="#333333"/>
<path d="M177.78 0.000114212L88.89 -49.995V50.005L177.78 0.000114212Z" fill="#999999"/>
<path d="M266.67 150.005V50.0049L177.78 100L266.67 150.005Z" fill="#4D4D4D"/>
<path d="M177.78 100L88.89 50.0049V150.005L177.78 100Z" fill="#4D4D4D"/>
<path d="M266.67 50.005L177.78 6.10352e-05V100L266.67 50.005Z" fill="#4D4D4D"/>
<path d="M177.78 6.10352e-05L88.89 50.005L177.78 100V6.10352e-05Z" fill="#999999"/>
<path d="M266.67 249.995V150.005L177.78 200L266.67 249.995Z" fill="#4D4D4D"/>
<path d="M177.78 200L88.89 150.005V249.995L177.78 200Z" fill="#808080"/>
<path d="M266.67 150.005L177.78 100V200L266.67 150.005Z" fill="#999999"/>
<path d="M177.78 100L88.89 150.005L177.78 200V100Z" fill="#999999"/>
<path d="M622.22 50.005L711.11 0.000114212L622.22 -49.995V50.005Z" fill="#808080"/>
<path d="M800 50.005V-49.995L711.11 0.000114212L800 50.005Z" fill="#999999"/>
<path d="M800 150.005V50.0049L711.11 100L800 150.005Z" fill="#666666"/>
<path d="M622.22 150.005L711.11 100L622.22 50.0049V150.005Z" fill="#4D4D4D"/>
<path d="M711.11 100V6.10352e-05L622.22 50.005L711.11 100Z" fill="#4D4D4D"/>
<path d="M711.11 100L800 50.005L711.11 6.10352e-05V100Z" fill="#999999"/>
<path d="M622.22 249.995L711.11 200L622.22 150.005V249.995Z" fill="#4D4D4D"/>
<path d="M800 249.995V150.005L711.11 200L800 249.995Z" fill="#4D4D4D"/>
<path d="M711.11 200V100L622.22 150.005L711.11 200Z" fill="#333333"/>
<path d="M711.11 200L800 150.005L711.11 100V200Z" fill="#666666"/>
<path d="M88.89 349.995V449.995L0 400L88.89 349.995Z" fill="#999999"/>
<path d="M88.89 249.995V349.995L0 300L88.89 249.995Z" fill="#666666"/>
<path d="M88.89 349.995L0 400V300L88.89 349.995Z" fill="#4D4D4D"/>
<path d="M88.89 249.995L0 200L88.89 150.005V249.995Z" fill="#666666"/>
<path d="M0 300V200L88.89 249.995L0 300Z" fill="#808080"/>
<path d="M266.67 349.995V449.995L177.78 400L266.67 349.995Z" fill="#333333"/>
<path d="M177.78 400L88.89 449.995V349.995L177.78 400Z" fill="#999999"/>
<path d="M266.67 249.995V349.995L177.78 300L266.67 249.995Z" fill="#4D4D4D"/>
<path d="M177.78 300L88.89 349.995V249.995L177.78 300Z" fill="#4D4D4D"/>
<path d="M266.67 349.995L177.78 400V300L266.67 349.995Z" fill="#4D4D4D"/>
<path d="M177.78 400L88.89 349.995L177.78 300V400Z" fill="#999999"/>
<path d="M266.67 150.005V249.995L177.78 200L266.67 150.005Z" fill="#4D4D4D"/>
<path d="M177.78 200L88.89 249.995V150.005L177.78 200Z" fill="#808080"/>
<path d="M266.67 249.995L177.78 300V200L266.67 249.995Z" fill="#999999"/>
<path d="M177.78 300L88.89 249.995L177.78 200V300Z" fill="#999999"/>
<path d="M533.33 0.000114212L444.44 -49.995V50.005L533.33 0.000114212Z" fill="#808080"/>
<path d="M622.22 50.005V-49.995L533.33 0.000114212L622.22 50.005Z" fill="#333333"/>
<path d="M533.33 100L444.44 50.0049V150.005L533.33 100Z" fill="#808080"/>
<path d="M622.22 150.005V50.0049L533.33 100L622.22 150.005Z" fill="#4D4D4D"/>
<path d="M533.33 6.10352e-05L444.44 50.005L533.33 100V6.10352e-05Z" fill="#666666"/>
<path d="M622.22 50.005L533.33 6.10352e-05V100L622.22 50.005Z" fill="#666666"/>
<path d="M622.22 249.995V150.005L533.33 200L622.22 249.995Z" fill="#666666"/>
<path d="M533.33 200L444.44 150.005V249.995L533.33 200Z" fill="#4D4D4D"/>
<path d="M533.33 100L444.44 150.005L533.33 200V100Z" fill="#666666"/>
<path d="M622.22 150.005L533.33 100V200L622.22 150.005Z" fill="#999999"/>
<path d="M533.33 400L444.44 449.995V349.995L533.33 400Z" fill="#808080"/>
<path d="M622.22 349.995V449.995L533.33 400L622.22 349.995Z" fill="#333333"/>
<path d="M533.33 300L444.44 349.995V249.995L533.33 300Z" fill="#808080"/>
<path d="M622.22 249.995V349.995L533.33 300L622.22 249.995Z" fill="#4D4D4D"/>
<path d="M533.33 400L444.44 349.995L533.33 300V400Z" fill="#666666"/>
<path d="M622.22 349.995L533.33 400V300L622.22 349.995Z" fill="#666666"/>
<path d="M622.22 150.005V249.995L533.33 200L622.22 150.005Z" fill="#666666"/>
<path d="M533.33 200L444.44 249.995V150.005L533.33 200Z" fill="#4D4D4D"/>
<path d="M533.33 300L444.44 249.995L533.33 200V300Z" fill="#666666"/>
<path d="M622.22 249.995L533.33 300V200L622.22 249.995Z" fill="#999999"/>
<path d="M444.44 50.005V-49.995L355.55 0.000114212L444.44 50.005Z" fill="#808080"/>
<path d="M355.55 0.000114212L266.67 -49.995V50.005L355.55 0.000114212Z" fill="#4D4D4D"/>
<path d="M355.55 100L266.67 50.0049V150.005L355.55 100Z" fill="#666666"/>
<path d="M444.44 150.005V50.0049L355.55 100L444.44 150.005Z" fill="#999999"/>
<path d="M355.55 100L444.44 50.005L355.55 6.10352e-05V100Z" fill="#808080"/>
<path d="M355.55 6.10352e-05L266.67 50.005L355.55 100V6.10352e-05Z" fill="#999999"/>
<path d="M266.67 249.995L355.55 200L266.67 150.005V249.995Z" fill="#666666"/>
<path d="M444.44 249.995V150.005L355.55 200L444.44 249.995Z" fill="#4D4D4D"/>
<path d="M355.55 200V100L266.67 150.005L355.55 200Z" fill="#666666"/>
<path d="M355.55 200L444.44 150.005L355.55 100V200Z" fill="#808080"/>
<path d="M444.44 349.995V449.995L355.55 400L444.44 349.995Z" fill="#808080"/>
<path d="M355.55 400L266.67 449.995V349.995L355.55 400Z" fill="#4D4D4D"/>
<path d="M355.55 300L266.67 349.995V249.995L355.55 300Z" fill="#666666"/>
<path d="M444.44 249.995V349.995L355.55 300L444.44 249.995Z" fill="#999999"/>
<path d="M355.55 300L444.44 349.995L355.55 400V300Z" fill="#808080"/>
<path d="M355.55 400L266.67 349.995L355.55 300V400Z" fill="#999999"/>
<path d="M266.67 150.005L355.55 200L266.67 249.995V150.005Z" fill="#666666"/>
<path d="M444.44 150.005V249.995L355.55 200L444.44 150.005Z" fill="#4D4D4D"/>
<path d="M355.55 200V300L266.67 249.995L355.55 200Z" fill="#666666"/>
<path d="M355.55 200L444.44 249.995L355.55 300V200Z" fill="#808080"/>
<path d="M622.22 349.995L711.11 400L622.22 449.995V349.995Z" fill="#808080"/>
<path d="M800 349.995V449.995L711.11 400L800 349.995Z" fill="#999999"/>
<path d="M800 249.995V349.995L711.11 300L800 249.995Z" fill="#666666"/>
<path d="M622.22 249.995L711.11 300L622.22 349.995V249.995Z" fill="#4D4D4D"/>
<path d="M711.11 300V400L622.22 349.995L711.11 300Z" fill="#4D4D4D"/>
<path d="M711.11 300L800 349.995L711.11 400V300Z" fill="#999999"/>
<path d="M622.22 150.005L711.11 200L622.22 249.995V150.005Z" fill="#4D4D4D"/>
<path d="M800 150.005V249.995L711.11 200L800 150.005Z" fill="#4D4D4D"/>
<path d="M711.11 200V300L622.22 249.995L711.11 200Z" fill="#333333"/>
<path d="M711.11 200L800 249.995L711.11 300V200Z" fill="#666666"/>
</g>
</g>
<g opacity="0.08">
<mask id="mask1_1740_6764" style="mask-type:luminance" maskUnits="userSpaceOnUse" x="800" y="0" width="800" height="400">
<path d="M800 400L1600 400V0.00979614L800 0.00979614V400Z" fill="white"/>
</mask>
<g mask="url(#mask1_1740_6764)">
<path d="M1155 50V-50L1244 -0.00489676L1155 50Z" fill="#333333"/>
<path d="M1155 150V50L1244 99.9951L1155 150Z" fill="#4D4D4D"/>
<path d="M1155 50.0049L1244 0V100L1155 50.0049Z" fill="#666666"/>
<path d="M1155.55 249.995V150.005L1244.44 200L1155.55 249.995Z" fill="#666666"/>
<path d="M1155 150.005L1244 100V200L1155 150.005Z" fill="#999999"/>
<path d="M1333 50V-50L1422 -0.00489676L1333 50Z" fill="#999999"/>
<path d="M1333 150V50L1422 99.9951L1333 150Z" fill="#666666"/>
<path d="M1333 50.0049L1422 0V100L1333 50.0049Z" fill="#4D4D4D"/>
<path d="M1332.97 150.005L1421.86 200L1332.97 249.995V150.005Z" fill="#666666"/>
<path d="M1422 100V200L1333 150.005L1422 100Z" fill="#808080"/>
<path d="M1244.08 0.000114212L1332.97 -49.995V50.005L1244.08 0.000114212Z" fill="#999999"/>
<path d="M1244.08 100L1332.97 50.0049V150.005L1244.08 100Z" fill="#4D4D4D"/>
<path d="M1244.08 6.10352e-05L1332.97 50.005L1244.08 100V6.10352e-05Z" fill="#999999"/>
<path d="M1244.08 200L1332.97 150.005V249.995L1244.08 200Z" fill="#808080"/>
<path d="M1244.08 100L1332.97 150.005L1244.08 200V100Z" fill="#999999"/>
<path d="M1333 350V450L1422 400.005L1333 350Z" fill="#999999"/>
<path d="M1333 250V350L1422 300.005L1333 250Z" fill="#666666"/>
<path d="M1333 349.995L1422 400V300L1333 349.995Z" fill="#4D4D4D"/>
<path d="M1333 250L1422 200L1333 150V250Z" fill="#666666"/>
<path d="M1422 300V200L1333 249.995L1422 300Z" fill="#808080"/>
<path d="M1244.08 400L1332.97 449.995V349.995L1244.08 400Z" fill="#999999"/>
<path d="M1244.08 300L1332.97 349.995V249.995L1244.08 300Z" fill="#4D4D4D"/>
<path d="M1244.08 400L1332.97 349.995L1244.08 300V400Z" fill="#999999"/>
<path d="M1244.08 200L1332.97 249.995V150.005L1244.08 200Z" fill="#808080"/>
<path d="M1244.08 300L1332.97 249.995L1244.08 200V300Z" fill="#999999"/>
<path d="M1155 350V450L1244 400.005L1155 350Z" fill="#333333"/>
<path d="M1155 250V350L1244 300.005L1155 250Z" fill="#4D4D4D"/>
<path d="M1155 349.995L1244 400V300L1155 349.995Z" fill="#666666"/>
<path d="M1155 150V250L1244 200L1155 150Z" fill="#666666"/>
<path d="M1511.11 50.005V-49.995L1599.99 0.000114212L1511.11 50.005Z" fill="#333333"/>
<path d="M1511.11 150.005V50.0049L1599.99 100L1511.11 150.005Z" fill="#4D4D4D"/>
<path d="M1511.11 50.005L1599.99 6.10352e-05V100L1511.11 50.005Z" fill="#4D4D4D"/>
<path d="M1511.11 249.995V150.005L1599.99 200L1511.11 249.995Z" fill="#4D4D4D"/>
<path d="M1511.11 150.005L1599.99 100V200L1511.11 150.005Z" fill="#999999"/>
<path d="M1422 -0.00489676L1511 -50V50L1422 -0.00489676Z" fill="#808080"/>
<path d="M1422 99.9951L1511 50V150L1422 99.9951Z" fill="#808080"/>
<path d="M1422 0L1511 50.0049L1422 100V0Z" fill="#666666"/>
<path d="M1422.22 200L1511.11 150.005V249.995L1422.22 200Z" fill="#4D4D4D"/>
<path d="M1422 100L1511 150.005L1422 200V100Z" fill="#666666"/>
<path d="M1511.11 349.995V449.995L1599.99 400L1511.11 349.995Z" fill="#333333"/>
<path d="M1511.11 249.995V349.995L1599.99 300L1511.11 249.995Z" fill="#4D4D4D"/>
<path d="M1511.11 349.995L1599.99 400V300L1511.11 349.995Z" fill="#4D4D4D"/>
<path d="M1511.11 150.005V249.995L1599.99 200L1511.11 150.005Z" fill="#4D4D4D"/>
<path d="M1511.11 249.995L1599.99 300V200L1511.11 249.995Z" fill="#999999"/>
<path d="M1422 400.005L1511 450V350L1422 400.005Z" fill="#808080"/>
<path d="M1422 300.005L1511 350V250L1422 300.005Z" fill="#808080"/>
<path d="M1422 400L1511 349.995L1422 300V400Z" fill="#666666"/>
<path d="M1422 200L1511 250V150L1422 200Z" fill="#4D4D4D"/>
<path d="M1422 300L1511 249.995L1422 200V300Z" fill="#666666"/>
<path d="M1155 249.995L1244 300V200L1155 249.995Z" fill="#999999"/>
<path d="M800 50.005V-49.995L888.88 0.000114212L800 50.005Z" fill="#808080"/>
<path d="M888.88 0.000114212L977.77 -49.995V50.005L888.88 0.000114212Z" fill="#4D4D4D"/>
<path d="M888.88 100L977.77 50.0049V150.005L888.88 100Z" fill="#666666"/>
<path d="M800 150.005V50.0049L888.88 100L800 150.005Z" fill="#999999"/>
<path d="M888.88 100L800 50.005L888.88 6.10352e-05V100Z" fill="#808080"/>
<path d="M888.88 6.10352e-05L977.77 50.005L888.88 100V6.10352e-05Z" fill="#999999"/>
<path d="M977.77 249.995L888.88 200L977.77 150.005V249.995Z" fill="#666666"/>
<path d="M800 249.995V150.005L888.88 200L800 249.995Z" fill="#4D4D4D"/>
<path d="M888.88 200V100L977.77 150.005L888.88 200Z" fill="#666666"/>
<path d="M888.88 200L800 150.005L888.88 100V200Z" fill="#808080"/>
<path d="M800 349.995V449.995L888.88 400L800 349.995Z" fill="#808080"/>
<path d="M888.88 400L977.77 449.995V349.995L888.88 400Z" fill="#4D4D4D"/>
<path d="M888.88 300L977.77 349.995V249.995L888.88 300Z" fill="#666666"/>
<path d="M800 249.995V349.995L888.88 300L800 249.995Z" fill="#999999"/>
<path d="M888.88 300L800 349.995L888.88 400V300Z" fill="#808080"/>
<path d="M888.88 400L977.77 349.995L888.88 300V400Z" fill="#999999"/>
<path d="M977.77 150.005L888.88 200L977.77 249.995V150.005Z" fill="#666666"/>
<path d="M800 150.005V249.995L888.88 200L800 150.005Z" fill="#4D4D4D"/>
<path d="M888.88 200V300L977.77 249.995L888.88 200Z" fill="#666666"/>
<path d="M888.88 200L800 249.995L888.88 300V200Z" fill="#808080"/>
<path d="M1155 50L1066 -0.00489676L1155 -50V50Z" fill="#808080"/>
<path d="M977.147 50.005V-49.995L1066.04 0.000114212L977.147 50.005Z" fill="#999999"/>
<path d="M977.147 150.005V50.0049L1066.04 100L977.147 150.005Z" fill="#666666"/>
<path d="M1155 150L1066 99.9951L1155 50V150Z" fill="#4D4D4D"/>
<path d="M1066.04 100V6.10352e-05L1154.93 50.005L1066.04 100Z" fill="#4D4D4D"/>
<path d="M1066.04 100L977.147 50.005L1066.04 6.10352e-05V100Z" fill="#999999"/>
<path d="M1154.93 249.995L1066.04 200L1154.93 150.005V249.995Z" fill="#4D4D4D"/>
<path d="M977.147 249.995V150.005L1066.04 200L977.147 249.995Z" fill="#4D4D4D"/>
<path d="M1066 200V100L1155 150.005L1066 200Z" fill="#333333"/>
<path d="M1066.04 200L977.147 150.005L1066.04 100V200Z" fill="#666666"/>
<path d="M1155 350L1066 400.005L1155 450V350Z" fill="#808080"/>
<path d="M977.147 349.995V449.995L1066.04 400L977.147 349.995Z" fill="#999999"/>
<path d="M977.147 249.995V349.995L1066.04 300L977.147 249.995Z" fill="#666666"/>
<path d="M1155 250L1066 300.005L1155 350V250Z" fill="#4D4D4D"/>
<path d="M1066 300V400L1155 349.995L1066 300Z" fill="#4D4D4D"/>
<path d="M1066.04 300L977.147 349.995L1066.04 400V300Z" fill="#999999"/>
<path d="M1155 150L1066 200L1155 250V150Z" fill="#4D4D4D"/>
<path d="M977.147 150.005V249.995L1066.04 200L977.147 150.005Z" fill="#4D4D4D"/>
<path d="M1066.04 200V300L1154.93 249.995L1066.04 200Z" fill="#333333"/>
<path d="M1066.04 200L977.147 249.995L1066.04 300V200Z" fill="#666666"/>
</g>
</g>
</svg>
