<svg width="1400" height="400" viewBox="0 0 1400 400" fill="none" xmlns="http://www.w3.org/2000/svg">
<g clip-path="url(#clip0_1762_10137)">
<path d="M1400 -0.329956H0V399.67H1400V-0.329956Z" fill="#212121"/>
<g opacity="0.08">
<mask id="mask0_1762_10137" style="mask-type:luminance" maskUnits="userSpaceOnUse" x="0" y="-1" width="1400" height="401">
<path d="M1400 -0.329956H0V399.67H1400V-0.329956Z" fill="white"/>
</mask>
<g mask="url(#mask0_1762_10137)">
<path d="M77.78 66.33V-67L0 -0.330002L77.78 66.33Z" fill="#999999"/>
<path d="M77.78 199.67V66.33L0 133L77.78 199.67Z" fill="#666666"/>
<path d="M77.78 66.33L0 -0.329956V133L77.78 66.33Z" fill="#4D4D4D"/>
<path d="M77.78 199.67L0 266.33L77.78 333V199.67Z" fill="#666666"/>
<path d="M0 133V266.33L77.78 199.67L0 133Z" fill="#808080"/>
<path d="M233.33 66.33V-67L155.56 -0.330002L233.33 66.33Z" fill="#333333"/>
<path d="M155.56 -0.330002L77.78 -67V66.33L155.56 -0.330002Z" fill="#666666"/>
<path d="M233.33 199.67V66.33L155.56 133L233.33 199.67Z" fill="#4D4D4D"/>
<path d="M155.56 133L77.78 66.33V199.67L155.56 133Z" fill="#4D4D4D"/>
<path d="M233.33 66.33L155.56 -0.329956V133L233.33 66.33Z" fill="#4D4D4D"/>
<path d="M155.56 -0.329956L77.78 66.33L155.56 133V-0.329956Z" fill="#808080"/>
<path d="M233.33 333V199.67L155.56 266.33L233.33 333Z" fill="#4D4D4D"/>
<path d="M155.56 266.33L77.78 199.67V333L155.56 266.33Z" fill="#999999"/>
<path d="M233.33 199.67L155.56 133V266.33L233.33 199.67Z" fill="#999999"/>
<path d="M155.56 133L77.78 199.67L155.56 266.33V133Z" fill="#4D4D4D"/>
<path d="M544.44 66.33L622.22 -0.330002L544.44 -67V66.33Z" fill="#808080"/>
<path d="M700 66.33V-67L622.22 -0.330002L700 66.33Z" fill="#999999"/>
<path d="M700 199.67V66.33L622.22 133L700 199.67Z" fill="#666666"/>
<path d="M544.44 199.67L622.22 133L544.44 66.33V199.67Z" fill="#4D4D4D"/>
<path d="M622.22 133V-0.329956L544.44 66.33L622.22 133Z" fill="#4D4D4D"/>
<path d="M622.22 133L700 66.33L622.22 -0.329956V133Z" fill="#999999"/>
<path d="M544.44 333L622.22 266.33L544.44 199.67V333Z" fill="#4D4D4D"/>
<path d="M700 333V199.67L622.22 266.33L700 333Z" fill="#4D4D4D"/>
<path d="M622.22 266.33V133L544.44 199.67L622.22 266.33Z" fill="#333333"/>
<path d="M622.22 266.33L700 199.67L622.22 133V266.33Z" fill="#666666"/>
<path d="M77.78 333V466.33L0 399.67L77.78 333Z" fill="#666666"/>
<path d="M77.78 333L0 266.33L77.78 199.67V333Z" fill="#666666"/>
<path d="M0 399.67V266.33L77.78 333L0 399.67Z" fill="#808080"/>
<path d="M233.33 333V466.33L155.56 399.67L233.33 333Z" fill="#4D4D4D"/>
<path d="M155.56 399.67L77.78 466.33V333L155.56 399.67Z" fill="#4D4D4D"/>
<path d="M233.33 199.67V333L155.56 266.33L233.33 199.67Z" fill="#4D4D4D"/>
<path d="M155.56 266.33L77.78 333V199.67L155.56 266.33Z" fill="#4D4D4D"/>
<path d="M233.33 333L155.56 399.67V266.33L233.33 333Z" fill="#999999"/>
<path d="M155.56 399.67L77.78 333L155.56 266.33V399.67Z" fill="#808080"/>
<path d="M466.67 -0.330002L388.89 -67V66.33L466.67 -0.330002Z" fill="#808080"/>
<path d="M544.44 66.33V-67L466.67 -0.330002L544.44 66.33Z" fill="#333333"/>
<path d="M466.67 133L388.89 66.33V199.67L466.67 133Z" fill="#808080"/>
<path d="M544.44 199.67V66.33L466.67 133L544.44 199.67Z" fill="#4D4D4D"/>
<path d="M466.67 -0.329956L388.89 66.33L466.67 133V-0.329956Z" fill="#666666"/>
<path d="M544.44 66.33L466.67 -0.329956V133L544.44 66.33Z" fill="#666666"/>
<path d="M544.44 333V199.67L466.67 266.33L544.44 333Z" fill="#666666"/>
<path d="M466.67 266.33L388.89 199.67V333L466.67 266.33Z" fill="#4D4D4D"/>
<path d="M466.67 133L388.89 199.67L466.67 266.33V133Z" fill="#666666"/>
<path d="M544.44 199.67L466.67 133V266.33L544.44 199.67Z" fill="#999999"/>
<path d="M466.67 399.67L388.89 466.33V333L466.67 399.67Z" fill="#808080"/>
<path d="M544.44 333V466.33L466.67 399.67L544.44 333Z" fill="#4D4D4D"/>
<path d="M544.44 199.67V333L466.67 266.33L544.44 199.67Z" fill="#666666"/>
<path d="M466.67 266.33L388.89 333V199.67L466.67 266.33Z" fill="#4D4D4D"/>
<path d="M466.67 399.67L388.89 333L466.67 266.33V399.67Z" fill="#666666"/>
<path d="M544.44 333L466.67 399.67V266.33L544.44 333Z" fill="#999999"/>
<path d="M388.89 66.33V-67L311.11 -0.330002L388.89 66.33Z" fill="#999999"/>
<path d="M311.11 -0.330002L233.33 -67V66.33L311.11 -0.330002Z" fill="#4D4D4D"/>
<path d="M311.11 133L233.33 66.33V199.67L311.11 133Z" fill="#666666"/>
<path d="M388.89 199.67V66.33L311.11 133L388.89 199.67Z" fill="#999999"/>
<path d="M311.11 133L388.89 66.33L311.11 -0.329956V133Z" fill="#808080"/>
<path d="M311.11 -0.329956L233.33 66.33L311.11 133V-0.329956Z" fill="#999999"/>
<path d="M233.33 333L311.11 266.33L233.33 199.67V333Z" fill="#666666"/>
<path d="M388.89 333V199.67L311.11 266.33L388.89 333Z" fill="#4D4D4D"/>
<path d="M311.11 266.33V133L233.33 199.67L311.11 266.33Z" fill="#4D4D4D"/>
<path d="M311.11 266.33L388.89 199.67L311.11 133V266.33Z" fill="#808080"/>
<path d="M311.11 399.67L233.33 466.33V333L311.11 399.67Z" fill="#666666"/>
<path d="M388.89 333V466.33L311.11 399.67L388.89 333Z" fill="#999999"/>
<path d="M233.33 199.67L311.11 266.33L233.33 333V199.67Z" fill="#666666"/>
<path d="M388.89 199.67V333L311.11 266.33L388.89 199.67Z" fill="#4D4D4D"/>
<path d="M311.11 266.33V399.67L233.33 333L311.11 266.33Z" fill="#999999"/>
<path d="M311.11 266.33L388.89 333L311.11 399.67V266.33Z" fill="#808080"/>
<path d="M700 333V466.33L622.22 399.67L700 333Z" fill="#666666"/>
<path d="M544.44 333L622.22 399.67L544.44 466.33V333Z" fill="#4D4D4D"/>
<path d="M544.44 199.67L622.22 266.33L544.44 333V199.67Z" fill="#4D4D4D"/>
<path d="M700 199.67V333L622.22 266.33L700 199.67Z" fill="#4D4D4D"/>
<path d="M622.22 266.33V399.67L544.44 333L622.22 266.33Z" fill="#333333"/>
<path d="M622.22 266.33L700 333L622.22 399.67V266.33Z" fill="#666666"/>
<path d="M1011.11 66.33V-67L1088.89 -0.330002L1011.11 66.33Z" fill="#333333"/>
<path d="M1011.11 199.67V66.33L1088.89 133L1011.11 199.67Z" fill="#666666"/>
<path d="M1011.11 66.33L1088.89 -0.329956V133L1011.11 66.33Z" fill="#666666"/>
<path d="M1011.11 333V199.67L1088.89 266.33L1011.11 333Z" fill="#666666"/>
<path d="M1011.11 199.67L1088.89 133V266.33L1011.11 199.67Z" fill="#999999"/>
<path d="M1166.36 66.33V-67L1244.13 -0.330002L1166.36 66.33Z" fill="#666666"/>
<path d="M1166.36 199.67V66.33L1244.13 133L1166.36 199.67Z" fill="#666666"/>
<path d="M1166.36 66.33L1244.13 -0.329956V133L1166.36 66.33Z" fill="#4D4D4D"/>
<path d="M1166.36 199.67L1244.13 266.33L1166.36 333V199.67Z" fill="#666666"/>
<path d="M1244.13 133V266.33L1166.36 199.67L1244.13 133Z" fill="#808080"/>
<path d="M1088.58 -0.330002L1166.36 -67V66.33L1088.58 -0.330002Z" fill="#999999"/>
<path d="M1088.58 133L1166.36 66.33V199.67L1088.58 133Z" fill="#4D4D4D"/>
<path d="M1088.58 -0.329956L1166.36 66.33L1088.58 133V-0.329956Z" fill="#999999"/>
<path d="M1088.58 266.33L1166.36 199.67V333L1088.58 266.33Z" fill="#808080"/>
<path d="M1088.58 133L1166.36 199.67L1088.58 266.33V133Z" fill="#999999"/>
<path d="M1166.36 333V466.33L1244.13 399.67L1166.36 333Z" fill="#666666"/>
<path d="M1166.36 333L1244.13 266.33L1166.36 199.67V333Z" fill="#666666"/>
<path d="M1244.13 399.67V266.33L1166.36 333L1244.13 399.67Z" fill="#808080"/>
<path d="M1088.58 399.67L1166.36 466.33V333L1088.58 399.67Z" fill="#4D4D4D"/>
<path d="M1088.58 266.33L1166.36 333V199.67L1088.58 266.33Z" fill="#808080"/>
<path d="M1088.58 399.67L1166.36 333L1088.58 266.33V399.67Z" fill="#999999"/>
<path d="M1011.11 333V466.33L1088.89 399.67L1011.11 333Z" fill="#4D4D4D"/>
<path d="M1011.11 199.67V333L1088.89 266.33L1011.11 199.67Z" fill="#666666"/>
<path d="M1322.22 66.33V-67L1400 -0.330002L1322.22 66.33Z" fill="#333333"/>
<path d="M1322.22 199.67V66.33L1400 133L1322.22 199.67Z" fill="#666666"/>
<path d="M1322.22 66.33L1400 -0.329956V133L1322.22 66.33Z" fill="#4D4D4D"/>
<path d="M1322.22 333V199.67L1400 266.33L1322.22 333Z" fill="#4D4D4D"/>
<path d="M1322.22 199.67L1400 133V266.33L1322.22 199.67Z" fill="#999999"/>
<path d="M1244.44 -0.330002L1322.22 -67V66.33L1244.44 -0.330002Z" fill="#808080"/>
<path d="M1244.44 133L1322.22 66.33V199.67L1244.44 133Z" fill="#808080"/>
<path d="M1244.44 -0.329956L1322.22 66.33L1244.44 133V-0.329956Z" fill="#666666"/>
<path d="M1244.44 266.33L1322.22 199.67V333L1244.44 266.33Z" fill="#4D4D4D"/>
<path d="M1244.44 133L1322.22 199.67L1244.44 266.33V133Z" fill="#666666"/>
<path d="M1322.22 333V466.33L1400 399.67L1322.22 333Z" fill="#4D4D4D"/>
<path d="M1322.22 199.67V333L1400 266.33L1322.22 199.67Z" fill="#4D4D4D"/>
<path d="M1322.22 333L1400 399.67V266.33L1322.22 333Z" fill="#999999"/>
<path d="M1244.44 399.67L1322.22 466.33V333L1244.44 399.67Z" fill="#808080"/>
<path d="M1244.44 266.33L1322.22 333V199.67L1244.44 266.33Z" fill="#4D4D4D"/>
<path d="M1244.44 399.67L1322.22 333L1244.44 266.33V399.67Z" fill="#666666"/>
<path d="M1011.11 333L1088.89 399.67V266.33L1011.11 333Z" fill="#999999"/>
<path d="M700 66.33V-67L777.78 -0.330002L700 66.33Z" fill="#808080"/>
<path d="M777.78 -0.330002L855.56 -67V66.33L777.78 -0.330002Z" fill="#4D4D4D"/>
<path d="M777.78 133L855.56 66.33V199.67L777.78 133Z" fill="#808080"/>
<path d="M700 199.67V66.33L777.78 133L700 199.67Z" fill="#999999"/>
<path d="M777.78 133L700 66.33L777.78 -0.329956V133Z" fill="#808080"/>
<path d="M777.78 -0.329956L855.56 66.33L777.78 133V-0.329956Z" fill="#999999"/>
<path d="M855.56 333L777.78 266.33L855.56 199.67V333Z" fill="#333333"/>
<path d="M700 333V199.67L777.78 266.33L700 333Z" fill="#4D4D4D"/>
<path d="M777.78 266.33V133L855.56 199.67L777.78 266.33Z" fill="#666666"/>
<path d="M777.78 266.33L700 199.67L777.78 133V266.33Z" fill="#808080"/>
<path d="M777.78 399.67L855.56 466.33V333L777.78 399.67Z" fill="#4D4D4D"/>
<path d="M700 333V466.33L777.78 399.67L700 333Z" fill="#999999"/>
<path d="M855.56 199.67L777.78 266.33L855.56 333V199.67Z" fill="#4D4D4D"/>
<path d="M700 199.67V333L777.78 266.33L700 199.67Z" fill="#4D4D4D"/>
<path d="M777.78 266.33V399.67L855.56 333L777.78 266.33Z" fill="#666666"/>
<path d="M777.78 266.33L700 333L777.78 399.67V266.33Z" fill="#808080"/>
<path d="M1010.56 66.33L932.78 -0.330002L1010.56 -67V66.33Z" fill="#808080"/>
<path d="M855.01 66.33V-67L932.78 -0.330002L855.01 66.33Z" fill="#333333"/>
<path d="M855.01 199.67V66.33L932.78 133L855.01 199.67Z" fill="#666666"/>
<path d="M1010.56 199.67L932.78 133L1010.56 66.33V199.67Z" fill="#333333"/>
<path d="M932.78 133V-0.329956L1010.56 66.33L932.78 133Z" fill="#808080"/>
<path d="M932.78 133L855.01 66.33L932.78 -0.329956V133Z" fill="#333333"/>
<path d="M1010.56 333L932.78 266.33L1010.56 199.67V333Z" fill="#4D4D4D"/>
<path d="M855.01 333V199.67L932.78 266.33L855.01 333Z" fill="#4D4D4D"/>
<path d="M932.78 266.33V133L1010.56 199.67L932.78 266.33Z" fill="#333333"/>
<path d="M932.78 266.33L855.01 199.67L932.78 133V266.33Z" fill="#808080"/>
<path d="M855.01 333V466.33L932.78 399.67L855.01 333Z" fill="#808080"/>
<path d="M1010.56 333L932.78 399.67L1010.56 466.33V333Z" fill="#4D4D4D"/>
<path d="M1010.56 199.67L932.78 266.33L1010.56 333V199.67Z" fill="#4D4D4D"/>
<path d="M855.01 199.67V333L932.78 266.33L855.01 199.67Z" fill="#999999"/>
<path d="M932.78 266.33V399.67L1010.56 333L932.78 266.33Z" fill="#333333"/>
<path d="M932.78 266.33L855.01 333L932.78 399.67V266.33Z" fill="#666666"/>
</g>
</g>
</g>
<defs>
<clipPath id="clip0_1762_10137">
<rect width="1400" height="400" fill="white"/>
</clipPath>
</defs>
</svg>
