<svg width="385" height="90" viewBox="0 0 385 90" fill="none" xmlns="http://www.w3.org/2000/svg">
<g clip-path="url(#clip0_1726_5051)">
<path fill-rule="evenodd" clip-rule="evenodd" d="M120.863 37.2886L149.148 9.00391L156.862 16.7184L128.578 45.0032L149.14 65.5655L169.708 44.9973L163.285 38.5741L149.149 52.7104L141.434 44.9959L155.571 30.8596L155.568 30.8569L163.282 23.1424L163.285 23.1451L163.291 23.1392L171.005 30.8538L171 30.8596L177.423 37.2828L177.429 37.2769L185.143 44.9914L185.137 44.9973L185.139 44.999L177.425 52.7136L177.423 52.7118L156.855 73.28L156.859 73.2843L149.144 80.9988L120.856 52.7101L120.853 52.7126L120.853 52.7121L92.5663 80.9985L84.8517 73.284L113.138 44.9975L106.714 38.5736L86.1456 59.1423L86.1469 59.1436L78.4324 66.8581L78.4311 66.8569L78.4296 66.8584L70.715 59.1438L70.7166 59.1423L64.294 52.7197L64.2922 52.7214L64.2829 52.7121L35.9955 80.9995L28.2809 73.285L56.5684 44.9975L50.1442 38.5734L29.5756 59.1421L29.5761 59.1426L21.8616 66.8572L21.861 66.8566L21.8583 66.8594L14.1437 59.1448L14.1465 59.1421L7.72259 52.7182L7.72155 52.7192L0.00701656 45.0047L0.00805731 45.0036L0.00488281 45.0005L7.71942 37.2859L7.72259 37.2891L36.0058 9.00586L43.7204 16.7204L15.4371 45.0036L21.861 51.4275L50.1426 23.146L50.1484 23.1519L50.1501 23.1502L64.2885 37.2886L64.2902 37.2869L64.2924 37.2891L92.5766 9.00493L100.291 16.7195L72.007 45.0036L78.4311 51.4278L98.9998 30.8591L98.9966 30.8559L106.711 23.1414L120.858 37.2879L120.86 37.2854L120.863 37.2886Z" fill="#F4F4F4"/>
<path d="M242.022 25.4011C240.962 25.4011 240.047 25.2645 239.276 24.9915C238.521 24.7185 237.895 24.3732 237.397 23.9557C236.899 23.522 236.497 23.0643 236.192 22.5825C235.903 22.1007 235.686 21.651 235.542 21.2335C235.397 20.7999 235.301 20.4465 235.253 20.1735C235.205 19.9005 235.18 19.764 235.18 19.764H238.047C238.047 19.764 238.071 19.8764 238.119 20.1013C238.168 20.31 238.264 20.575 238.408 20.8962C238.553 21.2014 238.77 21.5145 239.059 21.8357C239.364 22.1409 239.758 22.4059 240.239 22.6307C240.737 22.8395 241.364 22.9439 242.118 22.9439C243.243 22.9439 244.118 22.6789 244.744 22.1489C245.387 21.6189 245.708 20.9444 245.708 20.1253C245.708 19.4187 245.467 18.8727 244.985 18.4872C244.519 18.0857 243.829 17.7806 242.913 17.5718L240.552 17.0177C239.669 16.825 238.85 16.544 238.095 16.1746C237.357 15.7891 236.754 15.2752 236.289 14.6328C235.839 13.9904 235.614 13.1794 235.614 12.1997C235.614 11.1398 235.871 10.2324 236.385 9.47757C236.915 8.70668 237.638 8.12049 238.553 7.719C239.484 7.30143 240.544 7.09265 241.733 7.09265C242.889 7.09265 243.845 7.26931 244.6 7.62264C245.354 7.9599 245.957 8.37746 246.406 8.87531C246.856 9.37318 247.185 9.87907 247.394 10.393C247.619 10.8908 247.763 11.3164 247.828 11.6698C247.892 12.007 247.924 12.1756 247.924 12.1756H245.178C245.178 12.1756 245.146 12.0472 245.081 11.7902C245.017 11.5172 244.865 11.204 244.624 10.8507C244.399 10.4974 244.046 10.1922 243.564 9.93528C243.098 9.66226 242.464 9.52574 241.661 9.52574C240.552 9.52574 239.725 9.78271 239.179 10.2966C238.633 10.8105 238.36 11.3807 238.36 12.007C238.36 12.6173 238.593 13.1071 239.059 13.4765C239.525 13.8298 240.151 14.0948 240.938 14.2715L243.467 14.8737C244.399 15.0825 245.242 15.3957 245.997 15.8132C246.768 16.2308 247.378 16.7849 247.828 17.4754C248.277 18.15 248.502 18.9771 248.502 19.9567C248.502 20.9524 248.253 21.8679 247.755 22.703C247.274 23.522 246.551 24.1805 245.587 24.6784C244.624 25.1602 243.435 25.4011 242.022 25.4011ZM257.332 25.4011C255.935 25.4011 254.754 25.0879 253.791 24.4615C252.843 23.8352 252.12 23.0161 251.623 22.0044C251.141 20.9926 250.9 19.9166 250.9 18.7763C250.9 17.636 251.141 16.56 251.623 15.5482C252.12 14.5365 252.843 13.7174 253.791 13.0911C254.754 12.4647 255.935 12.1516 257.332 12.1516C258.713 12.1516 259.877 12.4647 260.825 13.0911C261.789 13.7174 262.511 14.5365 262.993 15.5482C263.491 16.56 263.74 17.636 263.74 18.7763C263.74 19.9166 263.491 20.9926 262.993 22.0044C262.511 23.0161 261.789 23.8352 260.825 24.4615C259.877 25.0879 258.713 25.4011 257.332 25.4011ZM257.332 23.0643C258.119 23.0643 258.777 22.8636 259.307 22.4621C259.853 22.0606 260.263 21.5306 260.536 20.8721C260.825 20.2137 260.97 19.5151 260.97 18.7763C260.97 18.0215 260.825 17.3229 260.536 16.6805C260.263 16.022 259.853 15.492 259.307 15.0905C258.777 14.689 258.119 14.4883 257.332 14.4883C256.545 14.4883 255.878 14.689 255.332 15.0905C254.786 15.492 254.377 16.022 254.104 16.6805C253.831 17.3229 253.694 18.0215 253.694 18.7763C253.694 19.5151 253.831 20.2137 254.104 20.8721C254.377 21.5306 254.786 22.0606 255.332 22.4621C255.878 22.8636 256.545 23.0643 257.332 23.0643ZM268.114 25.1602V14.6087H266.042V12.3925H268.114V11.0193C268.114 10.5215 268.178 10.0156 268.306 9.50166C268.435 8.98774 268.652 8.51397 268.957 8.08034C269.262 7.63066 269.679 7.27735 270.209 7.02039C270.739 6.74737 271.406 6.61086 272.209 6.61086C272.675 6.61086 273.06 6.65101 273.365 6.73131C273.67 6.79555 273.823 6.82767 273.823 6.82767V8.89941C273.823 8.89941 273.702 8.87532 273.461 8.82714C273.237 8.77896 272.98 8.75486 272.691 8.75486C271.984 8.75486 271.502 8.97167 271.245 9.4053C270.988 9.82286 270.86 10.3609 270.86 11.0193V12.3925H273.702V14.6087H270.86V25.1602H268.114ZM281.666 25.4011C280.654 25.4011 279.843 25.2164 279.233 24.847C278.623 24.4776 278.181 23.9878 277.908 23.3775C277.651 22.7512 277.523 22.0766 277.523 21.3539V14.6087H275.282V12.3925H277.523V9.21257H280.269V12.3925H283.256V14.6087H280.269V21.3058C280.269 22.5103 280.935 23.1125 282.268 23.1125C282.606 23.1125 282.919 23.0884 283.208 23.0402C283.497 22.9921 283.641 22.968 283.641 22.968V25.2083C283.641 25.2083 283.441 25.2405 283.039 25.3047C282.654 25.3689 282.196 25.4011 281.666 25.4011ZM289.68 25.1602L285.609 12.3925H288.379L291.173 21.6189L294.112 12.3925H296.666L299.605 21.6189L302.399 12.3925H305.194L301.099 25.1602H298.184L295.389 16.3914L292.619 25.1602H289.68ZM312.506 12.1516C313.309 12.1516 313.976 12.28 314.506 12.537C315.052 12.794 315.485 13.0911 315.806 13.4283C316.128 13.7656 316.361 14.0547 316.505 14.2956H316.65V12.3925H319.396V25.1602H316.65V23.257H316.505C316.361 23.4979 316.128 23.787 315.806 24.1243C315.485 24.4615 315.052 24.7587 314.506 25.0156C313.976 25.2726 313.309 25.4011 312.506 25.4011C311.543 25.4011 310.699 25.2164 309.977 24.847C309.27 24.4615 308.676 23.9557 308.194 23.3293C307.712 22.6869 307.351 21.9722 307.11 21.1853C306.885 20.3984 306.773 19.5954 306.773 18.7763C306.773 17.9572 306.885 17.1542 307.11 16.3673C307.351 15.5804 307.712 14.8737 308.194 14.2474C308.676 13.605 309.27 13.0991 309.977 12.7297C310.699 12.3443 311.543 12.1516 312.506 12.1516ZM313.108 14.4401C312.321 14.4401 311.663 14.6569 311.133 15.0905C310.603 15.5081 310.201 16.0461 309.928 16.7046C309.672 17.363 309.543 18.0536 309.543 18.7763C309.543 19.499 309.672 20.1896 309.928 20.848C310.201 21.5065 310.603 22.0525 311.133 22.4862C311.663 22.9037 312.321 23.1125 313.108 23.1125C313.895 23.1125 314.546 22.9037 315.06 22.4862C315.59 22.0525 315.983 21.5065 316.24 20.848C316.513 20.1896 316.65 19.499 316.65 18.7763C316.65 18.0536 316.513 17.363 316.24 16.7046C315.983 16.0461 315.59 15.5081 315.06 15.0905C314.546 14.6569 313.895 14.4401 313.108 14.4401ZM322.587 25.1602V12.3925H325.333V14.0788H325.429C325.67 13.5809 326.048 13.1392 326.562 12.7538C327.092 12.3523 327.855 12.1516 328.85 12.1516C329.155 12.1516 329.412 12.1676 329.621 12.1997C329.846 12.2319 329.958 12.2479 329.958 12.2479V14.8978C329.958 14.8978 329.838 14.8818 329.597 14.8496C329.356 14.8175 329.083 14.8015 328.778 14.8015C327.654 14.8015 326.795 15.1227 326.2 15.7651C325.622 16.3914 325.333 17.4112 325.333 18.8245V25.1602H322.587ZM337.501 25.4011C336.425 25.4011 335.494 25.2164 334.707 24.847C333.936 24.4615 333.294 23.9557 332.78 23.3293C332.282 22.6869 331.904 21.9722 331.647 21.1853C331.407 20.3984 331.286 19.5954 331.286 18.7763C331.286 17.9733 331.407 17.1783 331.647 16.3914C331.888 15.6045 332.258 14.8898 332.756 14.2474C333.253 13.605 333.888 13.0991 334.659 12.7297C335.43 12.3443 336.337 12.1516 337.381 12.1516C338.505 12.1516 339.493 12.4085 340.344 12.9224C341.211 13.4203 341.886 14.1671 342.368 15.1628C342.865 16.1425 343.114 17.363 343.114 18.8245V19.5713H334.056C334.121 20.5509 334.45 21.3941 335.044 22.1007C335.638 22.8074 336.457 23.1607 337.501 23.1607C338.096 23.1607 338.585 23.0643 338.971 22.8716C339.356 22.6628 339.653 22.43 339.862 22.173C340.071 21.916 340.216 21.6912 340.296 21.4985C340.392 21.3058 340.44 21.2094 340.44 21.2094H342.994C342.994 21.2094 342.954 21.3539 342.873 21.643C342.793 21.916 342.641 22.2613 342.416 22.6789C342.207 23.0964 341.902 23.514 341.5 23.9316C341.099 24.3491 340.569 24.7024 339.91 24.9915C339.252 25.2645 338.449 25.4011 337.501 25.4011ZM334.081 17.6441H340.464C340.4 16.5199 340.063 15.6928 339.453 15.1628C338.858 14.6328 338.16 14.3678 337.357 14.3678C336.457 14.3678 335.711 14.6649 335.116 15.2592C334.522 15.8373 334.177 16.6323 334.081 17.6441ZM353.134 25.1602V14.6087H351.063V12.3925H353.134V11.0193C353.134 10.5215 353.199 10.0156 353.327 9.50166C353.455 8.98774 353.672 8.51397 353.977 8.08034C354.283 7.63066 354.7 7.27735 355.23 7.02039C355.76 6.74737 356.427 6.61086 357.23 6.61086C357.695 6.61086 358.081 6.65101 358.386 6.73131C358.691 6.79555 358.844 6.82767 358.844 6.82767V8.89941C358.844 8.89941 358.723 8.87532 358.482 8.82714C358.257 8.77896 358 8.75486 357.711 8.75486C357.005 8.75486 356.523 8.97167 356.266 9.4053C356.009 9.82286 355.881 10.3609 355.881 11.0193V12.3925H358.723V14.6087H355.881V25.1602H353.134ZM366.701 25.4011C365.304 25.4011 364.124 25.0879 363.16 24.4615C362.213 23.8352 361.49 23.0161 360.992 22.0044C360.51 20.9926 360.269 19.9166 360.269 18.7763C360.269 17.636 360.51 16.56 360.992 15.5482C361.49 14.5365 362.213 13.7174 363.16 13.0911C364.124 12.4647 365.304 12.1516 366.701 12.1516C368.083 12.1516 369.247 12.4647 370.195 13.0911C371.158 13.7174 371.881 14.5365 372.363 15.5482C372.86 16.56 373.109 17.636 373.109 18.7763C373.109 19.9166 372.86 20.9926 372.363 22.0044C371.881 23.0161 371.158 23.8352 370.195 24.4615C369.247 25.0879 368.083 25.4011 366.701 25.4011ZM366.701 23.0643C367.488 23.0643 368.147 22.8636 368.677 22.4621C369.223 22.0606 369.632 21.5306 369.905 20.8721C370.195 20.2137 370.339 19.5151 370.339 18.7763C370.339 18.0215 370.195 17.3229 369.905 16.6805C369.632 16.022 369.223 15.492 368.677 15.0905C368.147 14.689 367.488 14.4883 366.701 14.4883C365.915 14.4883 365.248 14.689 364.702 15.0905C364.156 15.492 363.746 16.022 363.473 16.6805C363.2 17.3229 363.064 18.0215 363.064 18.7763C363.064 19.5151 363.2 20.2137 363.473 20.8721C363.746 21.5306 364.156 22.0606 364.702 22.4621C365.248 22.8636 365.915 23.0643 366.701 23.0643ZM376.084 25.1602V12.3925H378.83V14.0788H378.926C379.167 13.5809 379.545 13.1392 380.058 12.7538C380.588 12.3523 381.351 12.1516 382.347 12.1516C382.652 12.1516 382.909 12.1676 383.118 12.1997C383.343 12.2319 383.455 12.2479 383.455 12.2479V14.8978C383.455 14.8978 383.335 14.8818 383.094 14.8496C382.853 14.8175 382.58 14.8015 382.275 14.8015C381.151 14.8015 380.291 15.1227 379.697 15.7651C379.119 16.3914 378.83 17.4112 378.83 18.8245V25.1602H376.084Z" fill="#F4F4F4"/>
<path d="M242.022 54.301C240.962 54.301 240.047 54.1644 239.276 53.8914C238.521 53.6184 237.895 53.2731 237.397 52.8556C236.899 52.4219 236.497 51.9642 236.192 51.4824C235.903 51.0006 235.686 50.5509 235.542 50.1334C235.397 49.6998 235.301 49.3464 235.253 49.0734C235.205 48.8004 235.18 48.6639 235.18 48.6639H238.047C238.047 48.6639 238.071 48.7763 238.119 49.0012C238.168 49.2099 238.264 49.4749 238.408 49.7961C238.553 50.1013 238.77 50.4144 239.059 50.7356C239.364 51.0408 239.758 51.3058 240.239 51.5306C240.737 51.7394 241.364 51.8438 242.118 51.8438C243.243 51.8438 244.118 51.5788 244.744 51.0488C245.387 50.5188 245.708 49.8443 245.708 49.0252C245.708 48.3186 245.467 47.7726 244.985 47.3871C244.519 46.9856 243.829 46.6805 242.913 46.4717L240.552 45.9176C239.669 45.7249 238.85 45.4439 238.095 45.0745C237.357 44.689 236.754 44.1751 236.289 43.5327C235.839 42.8903 235.614 42.0793 235.614 41.0996C235.614 40.0397 235.871 39.1323 236.385 38.3775C236.915 37.6066 237.638 37.0204 238.553 36.6189C239.484 36.2013 240.544 35.9926 241.733 35.9926C242.889 35.9926 243.845 36.1692 244.6 36.5225C245.354 36.8598 245.957 37.2774 246.406 37.7752C246.856 38.2731 247.185 38.779 247.394 39.2929C247.619 39.7907 247.763 40.2163 247.828 40.5697C247.892 40.9069 247.924 41.0755 247.924 41.0755H245.178C245.178 41.0755 245.146 40.9471 245.081 40.6901C245.017 40.4171 244.865 40.1039 244.624 39.7506C244.399 39.3973 244.046 39.0921 243.564 38.8352C243.098 38.5622 242.464 38.4256 241.661 38.4256C240.552 38.4256 239.725 38.6826 239.179 39.1965C238.633 39.7104 238.36 40.2806 238.36 40.9069C238.36 41.5172 238.593 42.007 239.059 42.3764C239.525 42.7297 240.151 42.9947 240.938 43.1714L243.467 43.7736C244.399 43.9824 245.242 44.2956 245.997 44.7131C246.768 45.1307 247.378 45.6848 247.828 46.3753C248.277 47.0499 248.502 47.877 248.502 48.8566C248.502 49.8523 248.253 50.7678 247.755 51.6029C247.274 52.4219 246.551 53.0804 245.587 53.5783C244.624 54.0601 243.435 54.301 242.022 54.301ZM257.332 54.301C255.935 54.301 254.754 53.9878 253.791 53.3614C252.843 52.7351 252.12 51.916 251.623 50.9043C251.141 49.8925 250.9 48.8165 250.9 47.6762C250.9 46.5359 251.141 45.4599 251.623 44.4481C252.12 43.4364 252.843 42.6173 253.791 41.991C254.754 41.3646 255.935 41.0515 257.332 41.0515C258.713 41.0515 259.877 41.3646 260.825 41.991C261.789 42.6173 262.511 43.4364 262.993 44.4481C263.491 45.4599 263.74 46.5359 263.74 47.6762C263.74 48.8165 263.491 49.8925 262.993 50.9043C262.511 51.916 261.789 52.7351 260.825 53.3614C259.877 53.9878 258.713 54.301 257.332 54.301ZM257.332 51.9642C258.119 51.9642 258.777 51.7635 259.307 51.362C259.853 50.9605 260.263 50.4305 260.536 49.772C260.825 49.1136 260.97 48.415 260.97 47.6762C260.97 46.9214 260.825 46.2228 260.536 45.5804C260.263 44.9219 259.853 44.3919 259.307 43.9904C258.777 43.5889 258.119 43.3882 257.332 43.3882C256.545 43.3882 255.878 43.5889 255.332 43.9904C254.786 44.3919 254.377 44.9219 254.104 45.5804C253.831 46.2228 253.694 46.9214 253.694 47.6762C253.694 48.415 253.831 49.1136 254.104 49.772C254.377 50.4305 254.786 50.9605 255.332 51.362C255.878 51.7635 256.545 51.9642 257.332 51.9642ZM272.788 54.301C271.712 54.301 270.772 54.1163 269.969 53.7469C269.166 53.3614 268.5 52.8556 267.97 52.2292C267.44 51.5868 267.038 50.8721 266.765 50.0852C266.508 49.2983 266.38 48.4953 266.38 47.6762C266.38 46.8571 266.508 46.0541 266.765 45.2672C267.038 44.4803 267.44 43.7736 267.97 43.1473C268.5 42.5049 269.166 41.999 269.969 41.6296C270.772 41.2442 271.712 41.0515 272.788 41.0515C273.847 41.0515 274.723 41.2121 275.413 41.5333C276.12 41.8384 276.682 42.2238 277.1 42.6896C277.517 43.1553 277.83 43.6211 278.039 44.0868C278.248 44.5525 278.376 44.946 278.425 45.2672C278.489 45.5884 278.521 45.749 278.521 45.749H275.919C275.919 45.749 275.879 45.6286 275.799 45.3877C275.735 45.1468 275.598 44.8657 275.389 44.5445C275.18 44.2233 274.867 43.9423 274.45 43.7014C274.048 43.4605 273.502 43.34 272.812 43.34C271.993 43.34 271.31 43.5488 270.764 43.9663C270.218 44.3678 269.8 44.8978 269.511 45.5563C269.238 46.2147 269.102 46.9214 269.102 47.6762C269.102 48.431 269.238 49.1377 269.511 49.7961C269.8 50.4546 270.218 50.9926 270.764 51.4102C271.31 51.8117 271.993 52.0124 272.812 52.0124C273.502 52.0124 274.048 51.892 274.45 51.6511C274.867 51.4102 275.18 51.1291 275.389 50.8079C275.598 50.4867 275.735 50.2057 275.799 49.9648C275.879 49.7239 275.919 49.6034 275.919 49.6034H278.521C278.521 49.6034 278.489 49.764 278.425 50.0852C278.376 50.4064 278.248 50.7999 278.039 51.2656C277.83 51.7314 277.517 52.1971 277.1 52.6628C276.682 53.1286 276.12 53.522 275.413 53.8432C274.723 54.1484 273.847 54.301 272.788 54.301ZM283.198 39.1002C282.701 39.1002 282.291 38.9315 281.97 38.5943C281.649 38.257 281.488 37.8635 281.488 37.4139C281.488 36.9481 281.649 36.5547 281.97 36.2335C282.291 35.8962 282.701 35.7276 283.198 35.7276C283.696 35.7276 284.106 35.8962 284.427 36.2335C284.764 36.5547 284.933 36.9481 284.933 37.4139C284.933 37.8796 284.764 38.2811 284.427 38.6184C284.106 38.9396 283.696 39.1002 283.198 39.1002ZM281.849 54.0601V41.2924H284.596V54.0601H281.849ZM293.639 41.0515C294.442 41.0515 295.108 41.1799 295.638 41.4369C296.184 41.6939 296.618 41.991 296.939 42.3282C297.26 42.6655 297.493 42.9546 297.638 43.1955H297.782V41.2924H300.528V54.0601H297.782V52.1569H297.638C297.493 52.3978 297.26 52.6869 296.939 53.0242C296.618 53.3614 296.184 53.6586 295.638 53.9155C295.108 54.1725 294.442 54.301 293.639 54.301C292.675 54.301 291.832 54.1163 291.109 53.7469C290.403 53.3614 289.808 52.8556 289.327 52.2292C288.845 51.5868 288.483 50.8721 288.243 50.0852C288.018 49.2983 287.905 48.4953 287.905 47.6762C287.905 46.8571 288.018 46.0541 288.243 45.2672C288.483 44.4803 288.845 43.7736 289.327 43.1473C289.808 42.5049 290.403 41.999 291.109 41.6296C291.832 41.2442 292.675 41.0515 293.639 41.0515ZM294.241 43.34C293.454 43.34 292.796 43.5568 292.266 43.9904C291.736 44.408 291.334 44.946 291.061 45.6045C290.804 46.2629 290.676 46.9535 290.676 47.6762C290.676 48.3989 290.804 49.0895 291.061 49.7479C291.334 50.4064 291.736 50.9524 292.266 51.3861C292.796 51.8036 293.454 52.0124 294.241 52.0124C295.028 52.0124 295.678 51.8036 296.192 51.3861C296.722 50.9524 297.116 50.4064 297.373 49.7479C297.646 49.0895 297.782 48.3989 297.782 47.6762C297.782 46.9535 297.646 46.2629 297.373 45.6045C297.116 44.946 296.722 44.408 296.192 43.9904C295.678 43.5568 295.028 43.34 294.241 43.34ZM303.984 54.0601L304.008 35.7517H306.73V54.0601H303.984Z" fill="#F4F4F4"/>
<path d="M243.901 83.2111C242.423 83.2111 241.139 82.9542 240.047 82.4402C238.971 81.9263 238.071 81.2357 237.349 80.3685C236.626 79.4852 236.088 78.5055 235.734 77.4295C235.381 76.3374 235.205 75.2213 235.205 74.081C235.205 72.9407 235.381 71.8246 235.734 70.7325C236.088 69.6404 236.626 68.6608 237.349 67.7935C238.087 66.9102 239.003 66.2116 240.095 65.6977C241.203 65.1677 242.496 64.9027 243.973 64.9027C245.13 64.9027 246.117 65.0473 246.936 65.3363C247.755 65.6254 248.446 66.0028 249.008 66.4686C249.57 66.9182 250.02 67.4 250.357 67.914C250.694 68.4279 250.951 68.9177 251.128 69.3835C251.305 69.8492 251.425 70.2266 251.489 70.5157C251.554 70.8048 251.586 70.9493 251.586 70.9493H248.767C248.767 70.9493 248.735 70.8289 248.671 70.588C248.607 70.3471 248.478 70.058 248.285 69.7207C248.109 69.3674 247.844 69.0141 247.49 68.6608C247.137 68.3074 246.671 68.0184 246.093 67.7935C245.531 67.5526 244.832 67.4322 243.997 67.4322C243.002 67.4322 242.126 67.6249 241.372 68.0103C240.633 68.3797 240.014 68.8776 239.517 69.5039C239.035 70.1302 238.673 70.8369 238.433 71.6238C238.192 72.4108 238.071 73.2138 238.071 74.0328C238.071 74.8679 238.192 75.687 238.433 76.49C238.69 77.2769 239.059 77.9916 239.541 78.634C240.039 79.2604 240.649 79.7582 241.372 80.1276C242.11 80.497 242.97 80.6817 243.949 80.6817C245.475 80.6817 246.687 80.248 247.587 79.3808C248.486 78.5136 248.984 77.3412 249.08 75.8637H243.997V73.5992H251.803V74.876C251.803 76.7068 251.449 78.2405 250.743 79.4772C250.052 80.7138 249.104 81.6453 247.9 82.2716C246.711 82.8979 245.379 83.2111 243.901 83.2111ZM260.72 83.2111C259.322 83.2111 258.142 82.8979 257.178 82.2716C256.231 81.6453 255.508 80.8262 255.01 79.8144C254.528 78.8026 254.288 77.7266 254.288 76.5864C254.288 75.4461 254.528 74.3701 255.01 73.3583C255.508 72.3465 256.231 71.5275 257.178 70.9011C258.142 70.2748 259.322 69.9616 260.72 69.9616C262.101 69.9616 263.265 70.2748 264.213 70.9011C265.176 71.5275 265.899 72.3465 266.381 73.3583C266.879 74.3701 267.128 75.4461 267.128 76.5864C267.128 77.7266 266.879 78.8026 266.381 79.8144C265.899 80.8262 265.176 81.6453 264.213 82.2716C263.265 82.8979 262.101 83.2111 260.72 83.2111ZM260.72 80.8744C261.507 80.8744 262.165 80.6736 262.695 80.2721C263.241 79.8706 263.651 79.3407 263.924 78.6822C264.213 78.0237 264.357 77.3251 264.357 76.5864C264.357 75.8315 264.213 75.1329 263.924 74.4905C263.651 73.8321 263.241 73.3021 262.695 72.9006C262.165 72.4991 261.507 72.2983 260.72 72.2983C259.933 72.2983 259.266 72.4991 258.72 72.9006C258.174 73.3021 257.765 73.8321 257.492 74.4905C257.218 75.1329 257.082 75.8315 257.082 76.5864C257.082 77.3251 257.218 78.0237 257.492 78.6822C257.765 79.3407 258.174 79.8706 258.72 80.2721C259.266 80.6736 259.933 80.8744 260.72 80.8744ZM276.199 83.2111C274.802 83.2111 273.622 82.8979 272.658 82.2716C271.711 81.6453 270.988 80.8262 270.49 79.8144C270.008 78.8026 269.767 77.7266 269.767 76.5864C269.767 75.4461 270.008 74.3701 270.49 73.3583C270.988 72.3465 271.711 71.5275 272.658 70.9011C273.622 70.2748 274.802 69.9616 276.199 69.9616C277.58 69.9616 278.745 70.2748 279.692 70.9011C280.656 71.5275 281.379 72.3465 281.86 73.3583C282.358 74.3701 282.607 75.4461 282.607 76.5864C282.607 77.7266 282.358 78.8026 281.86 79.8144C281.379 80.8262 280.656 81.6453 279.692 82.2716C278.745 82.8979 277.58 83.2111 276.199 83.2111ZM276.199 80.8744C276.986 80.8744 277.645 80.6736 278.175 80.2721C278.721 79.8706 279.13 79.3407 279.403 78.6822C279.692 78.0237 279.837 77.3251 279.837 76.5864C279.837 75.8315 279.692 75.1329 279.403 74.4905C279.13 73.8321 278.721 73.3021 278.175 72.9006C277.645 72.4991 276.986 72.2983 276.199 72.2983C275.412 72.2983 274.746 72.4991 274.2 72.9006C273.654 73.3021 273.244 73.8321 272.971 74.4905C272.698 75.1329 272.562 75.8315 272.562 76.5864C272.562 77.3251 272.698 78.0237 272.971 78.6822C273.244 79.3407 273.654 79.8706 274.2 80.2721C274.746 80.6736 275.412 80.8744 276.199 80.8744ZM290.98 83.2111C290.017 83.2111 289.174 83.0264 288.451 82.657C287.744 82.2716 287.15 81.7657 286.668 81.1394C286.186 80.497 285.825 79.7823 285.584 78.9954C285.359 78.2084 285.247 77.4054 285.247 76.5864C285.247 75.7673 285.359 74.9643 285.584 74.1774C285.825 73.3904 286.186 72.6838 286.668 72.0574C287.15 71.415 287.744 70.9092 288.451 70.5398C289.174 70.1543 290.017 69.9616 290.98 69.9616C291.783 69.9616 292.45 70.0901 292.98 70.3471C293.526 70.604 293.96 70.9011 294.281 71.2384C294.602 71.5756 294.835 71.8647 294.979 72.1056H295.124V64.6618H297.87V82.9702H295.124V81.0671H294.979C294.835 81.308 294.602 81.5971 294.281 81.9343C293.96 82.2716 293.526 82.5687 292.98 82.8257C292.45 83.0826 291.783 83.2111 290.98 83.2111ZM291.583 80.9226C292.37 80.9226 293.02 80.7138 293.534 80.2962C294.064 79.8626 294.457 79.3166 294.714 78.6581C294.987 77.9996 295.124 77.3091 295.124 76.5864C295.124 75.8637 294.987 75.1731 294.714 74.5146C294.457 73.8562 294.064 73.3182 293.534 72.9006C293.02 72.467 292.37 72.2502 291.583 72.2502C290.796 72.2502 290.137 72.467 289.607 72.9006C289.077 73.3182 288.676 73.8562 288.403 74.5146C288.146 75.1731 288.017 75.8637 288.017 76.5864C288.017 77.3091 288.146 77.9996 288.403 78.6581C288.676 79.3166 289.077 79.8626 289.607 80.2962C290.137 80.7138 290.796 80.9226 291.583 80.9226Z" fill="#F4F4F4"/>
<path d="M216 0V90" stroke="#F4F4F4" stroke-width="3" stroke-miterlimit="10"/>
</g>
<defs>
<clipPath id="clip0_1726_5051">
<rect width="384.2" height="90" fill="white"/>
</clipPath>
</defs>
</svg>
