<svg width="186" height="73" viewBox="0 0 186 73" fill="none" xmlns="http://www.w3.org/2000/svg">
<path d="M36.0089 0.00207138L0.0100562 36.0009L7.72459 43.7154L43.7234 7.71661L36.0089 0.00207138Z" fill="#F4F4F4"/>
<path d="M50.1459 14.1421L14.147 50.1409L21.8616 57.8554L57.8604 21.8566L50.1459 14.1421Z" fill="#F4F4F4"/>
<path d="M29.5712 50.1527L7.71454 28.2961L0 36.0106L21.8567 57.8673L29.5712 50.1527Z" fill="#F4F4F4"/>
<path d="M72.0022 36.0026L50.1456 14.146L42.431 21.8605L64.2877 43.7172L72.0022 36.0026Z" fill="#F4F4F4"/>
<path d="M64.2899 28.2991L28.2911 64.298L36.0056 72.0125L72.0044 36.0137L64.2899 28.2991Z" fill="#F4F4F4"/>
<path d="M92.5799 0.00103378L56.5811 35.9998L64.2956 43.7144L100.294 7.71557L92.5799 0.00103378Z" fill="#F4F4F4"/>
<path d="M106.717 14.141L70.7181 50.1398L78.4326 57.8544L114.431 21.8556L106.717 14.141Z" fill="#F4F4F4"/>
<path d="M86.1422 50.1538L64.2856 28.2971L56.571 36.0116L78.4277 57.8683L86.1422 50.1538Z" fill="#F4F4F4"/>
<path d="M128.58 36.0007L106.724 14.1441L99.0091 21.8586L120.866 43.7153L128.58 36.0007Z" fill="#F4F4F4"/>
<path d="M120.861 28.2981L84.8621 64.2969L92.5767 72.0115L128.575 36.0126L120.861 28.2981Z" fill="#F4F4F4"/>
<path d="M149.141 0L113.142 35.9988L120.857 43.7133L156.855 7.71454L149.141 0Z" fill="#F4F4F4"/>
<path d="M163.287 14.1526L141.43 36.0093L149.145 43.7238L171.001 21.8671L163.287 14.1526Z" fill="#F4F4F4"/>
<path d="M156.854 64.2944L120.856 28.2956L113.141 36.0101L149.14 72.0089L156.854 64.2944Z" fill="#F4F4F4"/>
<path d="M185.151 36.0018L163.295 14.1451L155.58 21.8596L177.437 43.7163L185.151 36.0018Z" fill="#F4F4F4"/>
<path d="M177.439 28.29L141.44 64.2888L149.155 72.0033L185.154 36.0045L177.439 28.29Z" fill="#F4F4F4"/>
</svg>
