<svg xmlns="http://www.w3.org/2000/svg" viewBox="0 0 185.14 72"><defs><style>.cls-1{fill:#212121;}</style></defs><g id="Layer_2" data-name="Layer 2"><g id="Layer_1-2" data-name="Layer 1"><rect class="cls-1" x="-3.6" y="16.4" width="50.91" height="10.91" transform="translate(-9.05 21.86) rotate(-45)"/><rect class="cls-1" x="10.54" y="30.55" width="50.91" height="10.91" transform="translate(-14.91 36) rotate(-45)"/><rect class="cls-1" x="-0.67" y="37.62" width="30.91" height="10.91" transform="translate(34.79 2.16) rotate(45)"/><rect class="cls-1" x="41.76" y="23.47" width="30.91" height="10.91" transform="translate(37.21 -31.98) rotate(45)"/><rect class="cls-1" x="24.69" y="44.69" width="50.91" height="10.91" transform="translate(-20.77 50.14) rotate(-45)"/><rect class="cls-1" x="52.97" y="16.4" width="50.91" height="10.91" transform="translate(7.52 61.86) rotate(-45)"/><rect class="cls-1" x="67.12" y="30.55" width="50.91" height="10.91" transform="translate(1.66 76) rotate(-45)"/><rect class="cls-1" x="55.9" y="37.62" width="30.91" height="10.91" transform="translate(51.36 -37.84) rotate(45)"/><rect class="cls-1" x="98.33" y="23.47" width="30.91" height="10.91" transform="translate(53.78 -71.99) rotate(45)"/><rect class="cls-1" x="81.26" y="44.69" width="50.91" height="10.91" transform="translate(-4.2 90.14) rotate(-45)"/><rect class="cls-1" x="109.54" y="16.4" width="50.91" height="10.91" transform="translate(24.09 101.86) rotate(-45)"/><rect class="cls-1" x="140.76" y="23.47" width="30.91" height="10.91" transform="translate(25.3 118.93) rotate(-45)"/><rect class="cls-1" x="109.54" y="44.69" width="50.91" height="10.91" transform="translate(75 -80.77) rotate(45)"/><rect class="cls-1" x="154.9" y="23.47" width="30.91" height="10.91" transform="translate(70.35 -111.99) rotate(45)"/><rect class="cls-1" x="137.83" y="44.69" width="50.91" height="10.91" transform="translate(12.37 130.15) rotate(-45)"/></g></g></svg>